<svg xmlns="http://www.w3.org/2000/svg" width="716.934" height="180.163" viewBox="0 0 716.934 180.163">
  <g id="Group_73877" data-name="Group 73877" transform="translate(-913.623 -2306.922)">
    <text id="What_the_reviewers_say_" data-name="What the reviewers say

" transform="translate(914.123 2323.294)" fill="#d0c6ac" font-size="20" font-family="Raleway-Medium, Raleway" font-weight="500"><tspan x="49.659" y="19">What the reviewers say</tspan></text>
    <text id="RAVE" transform="translate(914.122 2380.839)" fill="#cf5231" font-size="40" font-family="Bauhaus93, 'Bauhaus \39 3'"><tspan x="115.146" y="36">RAVE</tspan></text>
    <text id="Based_on_13_reviewers" data-name="Based on 13 reviewers" transform="translate(914.21 2445.47)" fill="#d0c6ac" font-size="20" font-family="Raleway-Medium, Raleway" font-weight="500"><tspan x="54.979" y="19">Based on </tspan><tspan y="19" fill="#cf5231" text-decoration="underline">13 reviewers</tspan></text>
    <line id="Line_632" data-name="Line 632" y2="179.078" transform="translate(914.123 2307.422)" fill="none" stroke="#707070" stroke-width="1"/>
    <path id="Path_38190" data-name="Path 38190" d="M719.934-.269H3.5" transform="translate(910.622 2486.768)" fill="none" stroke="#707070" stroke-width="1"/>
    <line id="Line_633" data-name="Line 633" x1="716.123" transform="translate(914.188 2307.422)" fill="none" stroke="#707070" stroke-width="1"/>
    <line id="Line_634" data-name="Line 634" y1="179.078" transform="translate(1232.101 2307.422)" fill="none" stroke="#707070" stroke-width="1"/>
    <line id="Line_635" data-name="Line 635" x2="318" transform="translate(914.188 2429.598)" fill="none" stroke="#707070" stroke-width="1"/>
    <line id="Line_636" data-name="Line 636" x2="318" transform="translate(914.188 2367.839)" fill="none" stroke="#707070" stroke-width="1"/>
    <text id="RAVE_POSITIVE_MIXED_PAN" data-name="RAVE

POSITIVE

MIXED

PAN" transform="translate(1262.123 2329.085)" fill="#d0c6ac" font-size="16" font-family="Raleway-Medium, Raleway" font-weight="500"><tspan x="0" y="15">RAVE</tspan><tspan x="0" y="35"></tspan><tspan x="0" y="55">POSITIVE</tspan><tspan x="0" y="75"></tspan><tspan x="0" y="95">MIXED</tspan><tspan x="0" y="115"></tspan><tspan x="0" y="135">PAN</tspan></text>
    <line id="Line_637" data-name="Line 637" y2="179.078" transform="translate(1630 2307.422)" fill="none" stroke="#707070" stroke-width="1"/>
    <path id="Icon_awesome-bookmark" data-name="Icon awesome-bookmark" d="M0,20.751V1.945A1.945,1.945,0,0,1,1.945,0H13.618a1.945,1.945,0,0,1,1.945,1.945V20.751L7.782,16.212Z" transform="translate(1378.725 2411.337)" fill="#a19d9d" stroke="#a19d9d" stroke-width="0.5"/>
    <path id="Icon_awesome-bookmark-2" data-name="Icon awesome-bookmark" d="M0,20.751V1.945A1.945,1.945,0,0,1,1.945,0H13.618a1.945,1.945,0,0,1,1.945,1.945V20.751L7.782,16.212Z" transform="translate(1378.725 2453.226)" fill="#a19d9d" stroke="#a19d9d" stroke-width="0.5"/>
    <path id="Icon_awesome-bookmark-3" data-name="Icon awesome-bookmark" d="M0,20.751V1.945A1.945,1.945,0,0,1,1.945,0H13.618a1.945,1.945,0,0,1,1.945,1.945V20.751L7.782,16.212Z" transform="translate(1402.439 2411.337)" fill="none" stroke="#a19d9d" stroke-width="0.5"/>
    <path id="Icon_awesome-bookmark-4" data-name="Icon awesome-bookmark" d="M0,20.751V1.945A1.945,1.945,0,0,1,1.945,0H13.618a1.945,1.945,0,0,1,1.945,1.945V20.751L7.782,16.212Z" transform="translate(1402.439 2453.226)" fill="none" stroke="#a19d9d" stroke-width="0.5"/>
    <path id="Icon_awesome-bookmark-5" data-name="Icon awesome-bookmark" d="M0,20.751V1.945A1.945,1.945,0,0,1,1.945,0H13.618a1.945,1.945,0,0,1,1.945,1.945V20.751L7.782,16.212Z" transform="translate(1426.153 2411.337)" fill="none" stroke="#a19d9d" stroke-width="0.5"/>
    <path id="Icon_awesome-bookmark-6" data-name="Icon awesome-bookmark" d="M0,20.751V1.945A1.945,1.945,0,0,1,1.945,0H13.618a1.945,1.945,0,0,1,1.945,1.945V20.751L7.782,16.212Z" transform="translate(1426.153 2453.226)" fill="none" stroke="#a19d9d" stroke-width="0.5"/>
    <path id="Icon_awesome-bookmark-7" data-name="Icon awesome-bookmark" d="M0,20.751V1.945A1.945,1.945,0,0,1,1.945,0H13.618a1.945,1.945,0,0,1,1.945,1.945V20.751L7.782,16.212Z" transform="translate(1449.867 2411.337)" fill="none" stroke="#a19d9d" stroke-width="0.5"/>
    <path id="Icon_awesome-bookmark-8" data-name="Icon awesome-bookmark" d="M0,20.751V1.945A1.945,1.945,0,0,1,1.945,0H13.618a1.945,1.945,0,0,1,1.945,1.945V20.751L7.782,16.212Z" transform="translate(1449.867 2453.226)" fill="none" stroke="#a19d9d" stroke-width="0.5"/>
    <path id="Icon_awesome-bookmark-9" data-name="Icon awesome-bookmark" d="M0,20.751V1.945A1.945,1.945,0,0,1,1.945,0H13.618a1.945,1.945,0,0,1,1.945,1.945V20.751L7.782,16.212Z" transform="translate(1473.581 2411.337)" fill="none" stroke="#a19d9d" stroke-width="0.5"/>
    <path id="Icon_awesome-bookmark-10" data-name="Icon awesome-bookmark" d="M0,20.751V1.945A1.945,1.945,0,0,1,1.945,0H13.618a1.945,1.945,0,0,1,1.945,1.945V20.751L7.782,16.212Z" transform="translate(1473.581 2453.226)" fill="none" stroke="#a19d9d" stroke-width="0.5"/>
    <path id="Icon_awesome-bookmark-11" data-name="Icon awesome-bookmark" d="M0,20.751V1.945A1.945,1.945,0,0,1,1.945,0H13.618a1.945,1.945,0,0,1,1.945,1.945V20.751L7.782,16.212Z" transform="translate(1497.295 2411.337)" fill="none" stroke="#a19d9d" stroke-width="0.5"/>
    <path id="Icon_awesome-bookmark-12" data-name="Icon awesome-bookmark" d="M0,20.751V1.945A1.945,1.945,0,0,1,1.945,0H13.618a1.945,1.945,0,0,1,1.945,1.945V20.751L7.782,16.212Z" transform="translate(1497.295 2453.226)" fill="none" stroke="#a19d9d" stroke-width="0.5"/>
    <path id="Icon_awesome-bookmark-13" data-name="Icon awesome-bookmark" d="M0,20.751V1.945A1.945,1.945,0,0,1,1.945,0H13.618a1.945,1.945,0,0,1,1.945,1.945V20.751L7.782,16.212Z" transform="translate(1521.009 2411.337)" fill="none" stroke="#a19d9d" stroke-width="0.5"/>
    <path id="Icon_awesome-bookmark-14" data-name="Icon awesome-bookmark" d="M0,20.751V1.945A1.945,1.945,0,0,1,1.945,0H13.618a1.945,1.945,0,0,1,1.945,1.945V20.751L7.782,16.212Z" transform="translate(1521.009 2453.226)" fill="none" stroke="#a19d9d" stroke-width="0.5"/>
    <path id="Icon_awesome-bookmark-15" data-name="Icon awesome-bookmark" d="M0,20.751V1.945A1.945,1.945,0,0,1,1.945,0H13.618a1.945,1.945,0,0,1,1.945,1.945V20.751L7.782,16.212Z" transform="translate(1544.723 2411.337)" fill="none" stroke="#a19d9d" stroke-width="0.5"/>
    <path id="Icon_awesome-bookmark-16" data-name="Icon awesome-bookmark" d="M0,20.751V1.945A1.945,1.945,0,0,1,1.945,0H13.618a1.945,1.945,0,0,1,1.945,1.945V20.751L7.782,16.212Z" transform="translate(1544.723 2453.226)" fill="none" stroke="#a19d9d" stroke-width="0.5"/>
    <path id="Icon_awesome-bookmark-17" data-name="Icon awesome-bookmark" d="M0,20.751V1.945A1.945,1.945,0,0,1,1.945,0H13.618a1.945,1.945,0,0,1,1.945,1.945V20.751L7.782,16.212Z" transform="translate(1568.438 2411.337)" fill="none" stroke="#a19d9d" stroke-width="0.5"/>
    <path id="Icon_awesome-bookmark-18" data-name="Icon awesome-bookmark" d="M0,20.751V1.945A1.945,1.945,0,0,1,1.945,0H13.618a1.945,1.945,0,0,1,1.945,1.945V20.751L7.782,16.212Z" transform="translate(1568.438 2453.226)" fill="none" stroke="#a19d9d" stroke-width="0.5"/>
    <path id="Icon_awesome-bookmark-19" data-name="Icon awesome-bookmark" d="M0,20.751V1.945A1.945,1.945,0,0,1,1.945,0H13.618a1.945,1.945,0,0,1,1.945,1.945V20.751L7.782,16.212Z" transform="translate(1378.725 2369.448)" fill="#708044" stroke="#708044" stroke-width="0.5"/>
    <path id="Icon_awesome-bookmark-20" data-name="Icon awesome-bookmark" d="M0,20.751V1.945A1.945,1.945,0,0,1,1.945,0H13.618a1.945,1.945,0,0,1,1.945,1.945V20.751L7.782,16.212Z" transform="translate(1378.725 2328.56)" fill="#cf5231" stroke="#708044" stroke-width="0.5"/>
    <path id="Icon_awesome-bookmark-21" data-name="Icon awesome-bookmark" d="M0,20.751V1.945A1.945,1.945,0,0,1,1.945,0H13.618a1.945,1.945,0,0,1,1.945,1.945V20.751L7.782,16.212Z" transform="translate(1402.439 2369.448)" fill="none" stroke="#a19d9d" stroke-width="0.5"/>
    <path id="Icon_awesome-bookmark-22" data-name="Icon awesome-bookmark" d="M0,20.751V1.945A1.945,1.945,0,0,1,1.945,0H13.618a1.945,1.945,0,0,1,1.945,1.945V20.751L7.782,16.212Z" transform="translate(1402.439 2328.56)" fill="#cf5231" stroke="#a19d9d" stroke-width="0.5"/>
    <path id="Icon_awesome-bookmark-23" data-name="Icon awesome-bookmark" d="M0,20.751V1.945A1.945,1.945,0,0,1,1.945,0H13.618a1.945,1.945,0,0,1,1.945,1.945V20.751L7.782,16.212Z" transform="translate(1426.153 2369.448)" fill="none" stroke="#a19d9d" stroke-width="0.5"/>
    <path id="Icon_awesome-bookmark-24" data-name="Icon awesome-bookmark" d="M0,20.751V1.945A1.945,1.945,0,0,1,1.945,0H13.618a1.945,1.945,0,0,1,1.945,1.945V20.751L7.782,16.212Z" transform="translate(1426.153 2328.56)" fill="#cf5231" stroke="#a19d9d" stroke-width="0.5"/>
    <path id="Icon_awesome-bookmark-25" data-name="Icon awesome-bookmark" d="M0,20.751V1.945A1.945,1.945,0,0,1,1.945,0H13.618a1.945,1.945,0,0,1,1.945,1.945V20.751L7.782,16.212Z" transform="translate(1449.867 2369.448)" fill="none" stroke="#a19d9d" stroke-width="0.5"/>
    <path id="Icon_awesome-bookmark-26" data-name="Icon awesome-bookmark" d="M0,20.751V1.945A1.945,1.945,0,0,1,1.945,0H13.618a1.945,1.945,0,0,1,1.945,1.945V20.751L7.782,16.212Z" transform="translate(1449.867 2328.56)" fill="#cf5231" stroke="#a19d9d" stroke-width="0.5"/>
    <path id="Icon_awesome-bookmark-27" data-name="Icon awesome-bookmark" d="M0,20.751V1.945A1.945,1.945,0,0,1,1.945,0H13.618a1.945,1.945,0,0,1,1.945,1.945V20.751L7.782,16.212Z" transform="translate(1473.581 2369.448)" fill="none" stroke="#a19d9d" stroke-width="0.5"/>
    <path id="Icon_awesome-bookmark-28" data-name="Icon awesome-bookmark" d="M0,20.751V1.945A1.945,1.945,0,0,1,1.945,0H13.618a1.945,1.945,0,0,1,1.945,1.945V20.751L7.782,16.212Z" transform="translate(1473.581 2328.56)" fill="#cf5231" stroke="#a19d9d" stroke-width="0.5"/>
    <path id="Icon_awesome-bookmark-29" data-name="Icon awesome-bookmark" d="M0,20.751V1.945A1.945,1.945,0,0,1,1.945,0H13.618a1.945,1.945,0,0,1,1.945,1.945V20.751L7.782,16.212Z" transform="translate(1497.295 2369.448)" fill="none" stroke="#a19d9d" stroke-width="0.5"/>
    <path id="Icon_awesome-bookmark-30" data-name="Icon awesome-bookmark" d="M0,20.751V1.945A1.945,1.945,0,0,1,1.945,0H13.618a1.945,1.945,0,0,1,1.945,1.945V20.751L7.782,16.212Z" transform="translate(1497.295 2328.56)" fill="#cf5231" stroke="#a19d9d" stroke-width="0.5"/>
    <path id="Icon_awesome-bookmark-31" data-name="Icon awesome-bookmark" d="M0,20.751V1.945A1.945,1.945,0,0,1,1.945,0H13.618a1.945,1.945,0,0,1,1.945,1.945V20.751L7.782,16.212Z" transform="translate(1521.009 2369.448)" fill="none" stroke="#a19d9d" stroke-width="0.5"/>
    <path id="Icon_awesome-bookmark-32" data-name="Icon awesome-bookmark" d="M0,20.751V1.945A1.945,1.945,0,0,1,1.945,0H13.618a1.945,1.945,0,0,1,1.945,1.945V20.751L7.782,16.212Z" transform="translate(1521.009 2328.56)" fill="#cf5231" stroke="#a19d9d" stroke-width="0.5"/>
    <path id="Icon_awesome-bookmark-33" data-name="Icon awesome-bookmark" d="M0,20.751V1.945A1.945,1.945,0,0,1,1.945,0H13.618a1.945,1.945,0,0,1,1.945,1.945V20.751L7.782,16.212Z" transform="translate(1544.723 2369.448)" fill="none" stroke="#a19d9d" stroke-width="0.5"/>
    <path id="Icon_awesome-bookmark-34" data-name="Icon awesome-bookmark" d="M0,20.751V1.945A1.945,1.945,0,0,1,1.945,0H13.618a1.945,1.945,0,0,1,1.945,1.945V20.751L7.782,16.212Z" transform="translate(1544.723 2328.56)" fill="#cf5231" stroke="#a19d9d" stroke-width="0.5"/>
    <path id="Icon_awesome-bookmark-35" data-name="Icon awesome-bookmark" d="M0,20.751V1.945A1.945,1.945,0,0,1,1.945,0H13.618a1.945,1.945,0,0,1,1.945,1.945V20.751L7.782,16.212Z" transform="translate(1568.437 2369.448)" fill="none" stroke="#a19d9d" stroke-width="0.5"/>
    <path id="Icon_awesome-bookmark-36" data-name="Icon awesome-bookmark" d="M0,20.751V1.945A1.945,1.945,0,0,1,1.945,0H13.618a1.945,1.945,0,0,1,1.945,1.945V20.751L7.782,16.212Z" transform="translate(1568.438 2328.56)" fill="#cf5231" stroke="#a19d9d" stroke-width="0.5"/>
    <line id="Line_644" data-name="Line 644" x2="12.092" transform="translate(1594.123 2338.557)" fill="none" stroke="#cf5231" stroke-width="2"/>
    <line id="Line_645" data-name="Line 645" y2="11.336" transform="translate(1600.169 2333.267)" fill="none" stroke="#cf5231" stroke-width="2"/>
  </g>
</svg>
