<svg xmlns="http://www.w3.org/2000/svg" width="13" height="13" viewBox="0 0 13 13">
  <g id="_" data-name="?" transform="translate(0.011)">
    <g id="Ellipse_209" data-name="Ellipse 209" transform="translate(-0.011)" fill="#fff" stroke="#59595f" stroke-width="0.5">
      <circle cx="6.5" cy="6.5" r="6.5" stroke="none"/>
      <circle cx="6.5" cy="6.5" r="6.25" fill="none"/>
    </g>
    <path id="Path_38171" data-name="Path 38171" d="M2.19-6.1v-.553a1.924,1.924,0,0,1,.036-.408,1.1,1.1,0,0,1,.109-.295,1.141,1.141,0,0,1,.2-.254q.122-.122.3-.295.145-.136.29-.277a2.925,2.925,0,0,0,.263-.29,1.573,1.573,0,0,0,.2-.318.891.891,0,0,0,.077-.376.954.954,0,0,0-.077-.386.976.976,0,0,0-.2-.3.916.916,0,0,0-.3-.2.982.982,0,0,0-.376-.073.967.967,0,0,0-.721.281,1.22,1.22,0,0,0-.331.735L.72-9.2a1.911,1.911,0,0,1,.658-1.238,2.022,2.022,0,0,1,1.338-.449,2.184,2.184,0,0,1,.712.113A1.711,1.711,0,0,1,4-10.45a1.5,1.5,0,0,1,.386.526,1.72,1.72,0,0,1,.141.712,1.67,1.67,0,0,1-.1.6,1.828,1.828,0,0,1-.281.485L3.6-7.561l-.091.082q-.145.136-.231.231a.835.835,0,0,0-.136.2.793.793,0,0,0-.068.231,2.307,2.307,0,0,0-.018.318v.4ZM2.017-4.848a.576.576,0,0,1,.177-.422.576.576,0,0,1,.422-.177.576.576,0,0,1,.422.177.576.576,0,0,1,.177.422.576.576,0,0,1-.177.422.576.576,0,0,1-.422.177.576.576,0,0,1-.422-.177A.576.576,0,0,1,2.017-4.848Z" transform="translate(3.938 13.98)" fill="#555659" stroke="#59595f" stroke-width="0.5"/>
  </g>
</svg>
