<svg id="checkout1" xmlns="http://www.w3.org/2000/svg" width="69.055" height="69.055" viewBox="0 0 69.055 69.055">
  <g id="Path_38155" data-name="Path 38155" transform="translate(0 0)" fill="none">
    <path d="M34.527,0A34.527,34.527,0,1,1,0,34.527,34.527,34.527,0,0,1,34.527,0Z" stroke="none"/>
    <path d="M 34.52725219726562 2 C 30.13521957397461 2 25.87561798095703 2.859733581542969 21.86678695678711 4.555328369140625 C 17.99370956420898 6.193508148193359 14.51489639282227 8.539119720458984 11.52700805664062 11.52700805664062 C 8.539119720458984 14.51489639282227 6.193508148193359 17.99370956420898 4.555328369140625 21.86678695678711 C 2.859733581542969 25.87561798095703 2 30.13521957397461 2 34.52725219726562 C 2 38.91928482055664 2.859733581542969 43.17888641357422 4.555328369140625 47.18772125244141 C 6.193508148193359 51.06079864501953 8.539119720458984 54.53960800170898 11.52700805664062 57.52749633789062 C 14.51489639282227 60.51538467407227 17.99370956420898 62.86099624633789 21.86678695678711 64.49917602539062 C 25.87561798095703 66.19477081298828 30.13521957397461 67.05450439453125 34.52725219726562 67.05450439453125 C 38.91928482055664 67.05450439453125 43.17888641357422 66.19477081298828 47.18772125244141 64.49917602539062 C 51.06079864501953 62.86099624633789 54.53960800170898 60.51538467407227 57.52749633789062 57.52749633789062 C 60.51538467407227 54.53960800170898 62.86099624633789 51.06079864501953 64.49917602539062 47.18772125244141 C 66.19477081298828 43.17888641357422 67.05450439453125 38.91928482055664 67.05450439453125 34.52725219726562 C 67.05450439453125 30.13521957397461 66.19477081298828 25.87561798095703 64.49917602539062 21.86678695678711 C 62.86099624633789 17.99370956420898 60.51538467407227 14.51489639282227 57.52749633789062 11.52700805664062 C 54.53960800170898 8.539119720458984 51.06079864501953 6.193508148193359 47.18772125244141 4.555328369140625 C 43.17888641357422 2.859733581542969 38.91928482055664 2 34.52725219726562 2 M 34.52725219726562 0 C 53.59613037109375 0 69.05450439453125 15.4583740234375 69.05450439453125 34.52725219726562 C 69.05450439453125 53.59613037109375 53.59613037109375 69.05450439453125 34.52725219726562 69.05450439453125 C 15.4583740234375 69.05450439453125 0 53.59613037109375 0 34.52725219726562 C 0 15.4583740234375 15.4583740234375 0 34.52725219726562 0 Z" stroke="none" fill="#7c7a6c"/>
  </g>
  <text id="_1" data-name="1" transform="translate(14.262 12.506)" fill="#7c7a6c" font-size="36" font-family="FranklinGothic-Medium, Franklin Gothic" font-weight="500"><tspan x="9.71" y="33">1</tspan></text>
</svg>
