<svg xmlns="http://www.w3.org/2000/svg" width="136.396" height="24.739" viewBox="0 0 136.396 24.739">
  <g id="Group_55" data-name="Group 55" transform="translate(1.223 1.282)">
    <path id="Icon_material-stars" data-name="Icon material-stars" d="M26.829,29.917l-7.294-4.4-7.294,4.4,1.931-8.294L7.74,16.053l8.484-.724L19.535,7.5l3.311,7.811,8.484.724L24.9,21.605l1.931,8.312Z" transform="translate(-7.74 -7.5)" fill="#cf5231" stroke="#cf5231" stroke-width="1"/>
    <path id="Icon_material-stars-2" data-name="Icon material-stars" d="M26.829,29.917l-7.294-4.4-7.294,4.4,1.931-8.294L7.74,16.053l8.484-.724L19.535,7.5l3.311,7.811,8.484.724L24.9,21.605l1.931,8.312Z" transform="translate(19.85 -7.5)" fill="#cf5231" stroke="#cf5231" stroke-width="1"/>
    <path id="Icon_material-stars-3" data-name="Icon material-stars" d="M26.829,29.917l-7.294-4.4-7.294,4.4,1.931-8.294L7.74,16.053l8.484-.724L19.535,7.5l3.311,7.811,8.484.724L24.9,21.605l1.931,8.312Z" transform="translate(47.44 -7.5)" fill="#cf5231" stroke="#cf5231" stroke-width="1"/>
    <path id="Icon_material-stars-4" data-name="Icon material-stars" d="M26.829,29.917l-7.294-4.4-7.294,4.4,1.931-8.294L7.74,16.053l8.484-.724L19.535,7.5l3.311,7.811,8.484.724L24.9,21.605l1.931,8.312Z" transform="translate(75.031 -7.5)" fill="#cf5231" stroke="#cf5231" stroke-width="1"/>
    <path id="Icon_material-stars-5" data-name="Icon material-stars" d="M26.829,29.917l-7.294-4.4-7.294,4.4,1.931-8.294L7.74,16.053l8.484-.724L19.535,7.5l3.311,7.811,8.484.724L24.9,21.605l1.931,8.312Z" transform="translate(102.621 -7.5)" fill="none" stroke="#cf5231" stroke-width="1"/>
  </g>
</svg>
