<svg xmlns="http://www.w3.org/2000/svg" width="28.04" height="27.939" viewBox="0 0 28.04 27.939">
  <path id="Icon_awesome-search" data-name="Icon awesome-search" d="M26.568,23.29l-5.245-5.245a1.262,1.262,0,0,0-.894-.368h-.858a10.938,10.938,0,1,0-1.894,1.894v.858a1.262,1.262,0,0,0,.368.894l5.245,5.245a1.257,1.257,0,0,0,1.783,0l1.489-1.489a1.269,1.269,0,0,0,.005-1.789ZM10.943,17.677a6.734,6.734,0,1,1,6.734-6.734A6.73,6.73,0,0,1,10.943,17.677Z" transform="translate(0.5 0.5)" fill="#d3c1b3" stroke="#d3c1b3" stroke-width="1"/>
</svg>
