<svg xmlns="http://www.w3.org/2000/svg" width="30.869" height="30.869" viewBox="0 0 30.869 30.869">
  <g id="Icon_material-shopping-cart" data-name="Icon material-shopping-cart" transform="translate(0.5 0.5)">
    <path id="Icon_material-shopping-cart-2" data-name="Icon material-shopping-cart" d="M10.461,26.895a2.987,2.987,0,1,0,2.987,2.987A2.983,2.983,0,0,0,10.461,26.895ZM1.5,3V5.987H4.487L9.863,17.322,7.847,20.981a2.887,2.887,0,0,0-.373,1.434A3,3,0,0,0,10.461,25.4H28.382V22.415H11.088a.37.37,0,0,1-.373-.373l.045-.179L12.1,19.428H23.229a2.973,2.973,0,0,0,2.614-1.538L31.189,8.2a1.459,1.459,0,0,0,.179-.717,1.5,1.5,0,0,0-1.493-1.493H7.787L6.384,3ZM25.395,26.895a2.987,2.987,0,1,0,2.987,2.987A2.983,2.983,0,0,0,25.395,26.895Z" transform="translate(-1.5 -3)" fill="#d3c1b3" stroke="#d3c1b3" stroke-width="1"/>
  </g>
</svg>
