<svg xmlns="http://www.w3.org/2000/svg" width="27.095" height="27.095" viewBox="0 0 27.095 27.095">
  <path id="Icon_awesome-pinterest-square" data-name="Icon awesome-pinterest-square" d="M25.095,4.939V24.656a2.689,2.689,0,0,1-2.689,2.689H8.649a14.353,14.353,0,0,0,1.535-3.322c.168-.644.857-3.271.857-3.271a3.678,3.678,0,0,0,3.154,1.58c4.151,0,7.136-3.815,7.136-8.553,0-4.543-3.708-7.943-8.481-7.943-5.938,0-9.086,3.983-9.086,8.324,0,2.017,1.075,4.526,2.79,5.327.263.123.4.067.459-.185.045-.19.28-1.126.381-1.557a.406.406,0,0,0-.1-.392,5.362,5.362,0,0,1-1.025-3.137,5.954,5.954,0,0,1,6.212-5.971,5.432,5.432,0,0,1,5.747,5.6c0,3.719-1.877,6.3-4.324,6.3a2,2,0,0,1-2.039-2.487c.387-1.636,1.137-3.4,1.137-4.582,0-2.969-4.229-2.56-4.229,1.4a5.026,5.026,0,0,0,.409,2.045C7.428,23.95,7.164,24.045,7.528,27.3l.123.045H2.689A2.689,2.689,0,0,1,0,24.656V4.939A2.689,2.689,0,0,1,2.689,2.25H22.406A2.689,2.689,0,0,1,25.095,4.939Z" transform="translate(1 -1.25)" fill="none" stroke="#d3c1b3" stroke-width="2"/>
</svg>
