<svg xmlns="http://www.w3.org/2000/svg" width="29" height="29" viewBox="0 0 29 29">
  <path id="Icon_awesome-facebook-square" data-name="Icon awesome-facebook-square" d="M24.107,2.25H2.893A2.893,2.893,0,0,0,0,5.143V26.357A2.893,2.893,0,0,0,2.893,29.25h8.272V20.071h-3.8V15.75h3.8V12.457c0-3.746,2.23-5.815,5.645-5.815a23,23,0,0,1,3.346.292V10.61H18.271a2.16,2.16,0,0,0-2.436,2.334V15.75h4.145l-.663,4.321H15.835V29.25h8.272A2.893,2.893,0,0,0,27,26.357V5.143A2.893,2.893,0,0,0,24.107,2.25Z" transform="translate(1 -1.25)" fill="none" stroke="#d3c1b3" stroke-width="2"/>
</svg>
