<svg id="Icon_awesome-star-of-life" data-name="Icon awesome-star-of-life" xmlns="http://www.w3.org/2000/svg" width="4.276" height="4.561" viewBox="0 0 4.276 4.561">
  <path id="Icon_awesome-star-of-life-2" data-name="Icon awesome-star-of-life" d="M4.2,2.979l-1.211-.7,1.211-.7a.142.142,0,0,0,.052-.195L3.971.893A.143.143,0,0,0,3.777.841l-1.211.7V.143A.143.143,0,0,0,2.423,0h-.57A.143.143,0,0,0,1.71.143v1.4L.5.841A.143.143,0,0,0,.3.893l-.285.494a.143.143,0,0,0,.052.195l1.211.7-1.211.7a.143.143,0,0,0-.052.195L.3,3.667A.143.143,0,0,0,.5,3.72l1.211-.7v1.4a.143.143,0,0,0,.143.143h.57a.143.143,0,0,0,.143-.143v-1.4l1.211.7a.143.143,0,0,0,.195-.052l.285-.494A.142.142,0,0,0,4.2,2.979Z" transform="translate(0)" fill="#cf5231"/>
</svg>
