<svg xmlns="http://www.w3.org/2000/svg" width="37.238" height="37.237" viewBox="0 0 37.238 37.237">
  <g id="Group_73665" data-name="Group 73665" transform="translate(0.5 0.5)">
    <path id="Icon_awesome-user-alt" data-name="Icon awesome-user-alt" d="M18.119,20.383A10.192,10.192,0,1,0,7.927,10.192,10.194,10.194,0,0,0,18.119,20.383Zm9.059,2.265h-3.9a12.321,12.321,0,0,1-10.319,0h-3.9A9.059,9.059,0,0,0,0,31.707V32.84a3.4,3.4,0,0,0,3.4,3.4H32.84a3.4,3.4,0,0,0,3.4-3.4V31.707A9.059,9.059,0,0,0,27.178,22.648Z" transform="translate(0 0)" fill="#d3c1b3" stroke="#d1bfb2" stroke-width="1"/>
  </g>
</svg>
