<svg id="stage_1_highlight" data-name="stage 1 highlight" xmlns="http://www.w3.org/2000/svg" width="69.055" height="69.055" viewBox="0 0 69.055 69.055">
  <g id="Path_38155" data-name="Path 38155" transform="translate(0 0)" fill="#d3c1b3">
    <path d="M 34.52725219726562 68.05450439453125 C 30.00066184997559 68.05450439453125 25.6100025177002 67.16818237304688 21.47724151611328 65.42017364501953 C 17.48496246337891 63.73158264160156 13.89931201934814 61.31400299072266 10.81991195678711 58.23460388183594 C 7.74050235748291 55.15519332885742 5.322922229766846 51.56955337524414 3.634332180023193 47.57726287841797 C 1.886322140693665 43.44450378417969 1.000002145767212 39.05384063720703 1.000002145767212 34.52725219726562 C 1.000002145767212 30.00066184997559 1.886322140693665 25.6100025177002 3.634332180023193 21.47724151611328 C 5.322922229766846 17.48496246337891 7.74050235748291 13.89931201934814 10.81991195678711 10.81991195678711 C 13.89931201934814 7.74050235748291 17.48496246337891 5.322922229766846 21.47724151611328 3.634332180023193 C 25.6100025177002 1.886322140693665 30.00066184997559 1.000002145767212 34.52725219726562 1.000002145767212 C 39.05384063720703 1.000002145767212 43.44450378417969 1.886322140693665 47.57726287841797 3.634332180023193 C 51.56955337524414 5.322922229766846 55.15519332885742 7.74050235748291 58.23460388183594 10.81991195678711 C 61.31400299072266 13.89931201934814 63.73158264160156 17.48496246337891 65.42017364501953 21.47724151611328 C 67.16818237304688 25.6100025177002 68.05450439453125 30.00066184997559 68.05450439453125 34.52725219726562 C 68.05450439453125 39.05384063720703 67.16818237304688 43.44450378417969 65.42017364501953 47.57726287841797 C 63.73158264160156 51.56955337524414 61.31400299072266 55.15519332885742 58.23460388183594 58.23460388183594 C 55.15519332885742 61.31400299072266 51.56955337524414 63.73158264160156 47.57726287841797 65.42017364501953 C 43.44450378417969 67.16818237304688 39.05384063720703 68.05450439453125 34.52725219726562 68.05450439453125 Z" stroke="none"/>
    <path d="M 34.52725219726562 2 C 30.13521957397461 2 25.87561798095703 2.859733581542969 21.86678695678711 4.555328369140625 C 17.99370956420898 6.193508148193359 14.51489639282227 8.539119720458984 11.52700805664062 11.52700805664062 C 8.539119720458984 14.51489639282227 6.193508148193359 17.99370956420898 4.555328369140625 21.86678695678711 C 2.859733581542969 25.87561798095703 2 30.13521957397461 2 34.52725219726562 C 2 38.91928482055664 2.859733581542969 43.17888641357422 4.555328369140625 47.18772125244141 C 6.193508148193359 51.06079864501953 8.539119720458984 54.53960800170898 11.52700805664062 57.52749633789062 C 14.51489639282227 60.51538467407227 17.99370956420898 62.86099624633789 21.86678695678711 64.49917602539062 C 25.87561798095703 66.19477081298828 30.13521957397461 67.05450439453125 34.52725219726562 67.05450439453125 C 38.91928482055664 67.05450439453125 43.17888641357422 66.19477081298828 47.18772125244141 64.49917602539062 C 51.06079864501953 62.86099624633789 54.53960800170898 60.51538467407227 57.52749633789062 57.52749633789062 C 60.51538467407227 54.53960800170898 62.86099624633789 51.06079864501953 64.49917602539062 47.18772125244141 C 66.19477081298828 43.17888641357422 67.05450439453125 38.91928482055664 67.05450439453125 34.52725219726562 C 67.05450439453125 30.13521957397461 66.19477081298828 25.87561798095703 64.49917602539062 21.86678695678711 C 62.86099624633789 17.99370956420898 60.51538467407227 14.51489639282227 57.52749633789062 11.52700805664062 C 54.53960800170898 8.539119720458984 51.06079864501953 6.193508148193359 47.18772125244141 4.555328369140625 C 43.17888641357422 2.859733581542969 38.91928482055664 2 34.52725219726562 2 M 34.52725219726562 0 C 53.59613037109375 0 69.05450439453125 15.4583740234375 69.05450439453125 34.52725219726562 C 69.05450439453125 53.59613037109375 53.59613037109375 69.05450439453125 34.52725219726562 69.05450439453125 C 15.4583740234375 69.05450439453125 0 53.59613037109375 0 34.52725219726562 C 0 15.4583740234375 15.4583740234375 0 34.52725219726562 0 Z" stroke="none" fill="#d3c1b3"/>
  </g>
  <text id="_1" data-name="1" transform="translate(14.261 13.002)" fill="#fff" font-size="36" font-family="FranklinGothic-Medium, Franklin Gothic" font-weight="500"><tspan x="9.71" y="33">1</tspan></text>
</svg>
